<svg width="64" height="64" viewBox="0 0 64 64" fill="none" xmlns="http://www.w3.org/2000/svg">
  <defs>
    <linearGradient id="logoGrad1" x1="0%" y1="0%" x2="100%" y2="100%">
      <stop offset="0%" stop-color="#ff7a00" />
      <stop offset="100%" stop-color="#ff9f43" />
    </linearGradient>
    <linearGradient id="logoGrad2" x1="0%" y1="0%" x2="100%" y2="100%">
      <stop offset="0%" stop-color="#ff9f43" />
      <stop offset="100%" stop-color="#ffbe76" />
    </linearGradient>
  </defs>
  <!-- Shield body -->
  <path d="M32 4L8 16v16c0 14.4 10.24 27.84 24 32 13.76-4.16 24-17.6 24-32V16L32 4z" fill="url(#logoGrad1)" opacity="0.9"/>
  <!-- Cloud shape inside shield -->
  <path d="M40.5 30.5a5.5 5.5 0 00-5.2-3.8 7.5 7.5 0 00-14.3 3.2 4.8 4.8 0 002 9.1h15.5a4.2 4.2 0 002-7.8 5.3 5.3 0 00-.3-.7h.3z" fill="white" opacity="0.95"/>
  <!-- Checkmark over cloud -->
  <path d="M25 32l4.5 4.5L38 28" stroke="url(#logoGrad1)" stroke-width="3" stroke-linecap="round" stroke-linejoin="round" fill="none"/>
  <!-- Inner glow ring -->
  <path d="M32 8L12 18v14c0 12.4 8.6 23.9 20 27.6 11.4-3.7 20-15.2 20-27.6V18L32 8z" fill="none" stroke="white" stroke-width="0.8" opacity="0.2"/>
</svg>
